# xmcd
#
# Track frame offsets: 
#        183
#        22835
#        42895
#        64293
#        78708
#        99808
#        122245
#        143765
#        165645
#        189768
#        194375
#        210070
#        230173
#        249803
#        274545
#
# Disc length: 4388 seconds
#
# Revision: 4
# Processed by: cddbd v1.5.2PL0 Copyright (c) Steve Scherf et al.
# Submitted via: ExactAudioCopy v0.99pb4
#
DISCID=bc11220f
DTITLE=Various Artist - New Age Music and New Sounds Vol. 63 - Pyramid
DYEAR=1900
DGENRE=New Age
TTITLE0=David Arkenstone - Trail Of Tears
TTITLE1=Billy McLaughlin - Hurricane Bob
TTITLE2=Mark Johnson - Mediterranean
TTITLE3=Luca Proietti - Song Of The Wind
TTITLE4=David Wright - Cosmicon
TTITLE5=Waldeck - Aquarius
TTITLE6=Way - Mala Bi Aio
TTITLE7=Okolokolo - Ekahalat
TTITLE8=Code - Indingo - 5' 22"
TTITLE9=Code - Indingo - 0' 55"
TTITLE10=Portis and Cathers - Night Flights
TTITLE11=George Winston - Monterey
TTITLE12=A Reminiscent Drive - Like Twins
TTITLE13=Henrik Koitzsch and Jakob Gadegaard Frandsen - Earthrise
TTITLE14=Steve Jansen and Richard Barbieri - Light Years
EXTD=
EXTT0=
EXTT1=
EXTT2=
EXTT3=
EXTT4=
EXTT5=
EXTT6=
EXTT7=
EXTT8=
EXTT9=
EXTT10=
EXTT11=
EXTT12=
EXTT13=
EXTT14=
PLAYORDER=
